<?xml version="1.0" encoding="UTF-8" standalone="no"?>
<svg
   width="210mm"
   height="297mm"
   viewBox="0 0 210 297"
   version="1.1"
   id="svg1"
   xml:space="preserve"
   xmlns="http://www.w3.org/2000/svg"
   xmlns:svg="http://www.w3.org/2000/svg"><defs
     id="defs1" /><g
     id="layer1"><path
       style="fill:#2563eb;stroke:none;stroke-width:1.45369"
       d="M 104.18926,1.0912136 C 87.695351,3.2257516 72.803666,4.0678551 57.49524,11.607317 46.357914,17.092498 35.718033,24.052214 27.392738,33.295564 20.467668,40.984284 14.160098,49.261987 9.7887075,58.665238 -13.977891,109.78931 14.112788,156.78839 42.728748,199.09598 c 13.94192,20.6126 28.535107,40.82102 43.43199,60.77465 4.524784,6.06071 10.082883,18.92039 19.225792,17.80835 6.29308,-0.76542 11.03954,-10.84799 14.3674,-15.44817 10.86763,-15.02267 22.06831,-29.80979 32.92526,-44.84343 21.60657,-29.91864 49.55845,-64.84471 55.41958,-102.07781 C 215.65682,67.296629 185.31182,21.592941 138.91044,6.3479052 128.41488,2.8996136 115.31431,-0.34851692 104.18926,1.0912136 M 98.801489,25.201116 c 8.718201,-1.014429 18.489331,0.429245 26.938851,2.563243 9.41574,2.378025 18.3988,6.537206 26.34021,12.040825 46.28782,32.07879 45.06137,103.047506 -2.39457,133.508646 -10.81296,6.94065 -23.12603,11.12473 -35.91847,12.6327 C 47.069755,193.80886 -0.52531976,118.5744 35.317344,62.795553 40.718081,54.39083 47.541328,46.866207 55.699319,40.972075 68.68679,31.58865 82.972983,27.042882 98.801489,25.201116 m -48.489949,96.598944 108.9527,0.59005 c 0,5.02478 -1.55307,12.99518 0.36122,17.66674 1.50272,3.6672 6.17626,2.31837 6.73381,-1.14821 1.53336,-9.53422 0.0887,-20.42807 0.0887,-30.08957 0,-3.07833 1.02376,-8.39645 -0.61528,-11.123446 -1.67951,-2.794311 -5.60415,-1.806978 -6.37811,1.104074 -1.26162,4.745292 -0.19031,11.016762 -0.19031,15.919832 H 50.311599 V 96.428134 c 0,-7.580265 0.636388,-15.461912 -0.03514,-23.011317 -0.229989,-2.585643 -2.457246,-5.098919 -5.263977,-3.521599 -3.733478,2.098129 -1.88461,12.822361 -1.88461,16.502142 v 37.17284 c 0,4.71688 -1.417239,12.10198 0.444353,16.48665 1.380575,3.25173 5.553076,2.62784 6.479737,-0.56681 1.506543,-5.19365 0.259595,-12.2953 0.259595,-17.68998 m 13.76876,-36.268196 c -13.165245,3.153369 -7.807059,23.600116 5.387763,20.614696 14.068884,-3.18318 8.568169,-23.957445 -5.387763,-20.614696 m 23.347004,0.275452 v 21.241614 h 63.455959 c 0,-5.87371 1.34944,-13.011266 -3.10591,-17.645798 -4.66564,-4.853261 -11.68289,-3.595816 -17.84652,-3.595816 z"
       id="path2" /></g></svg>
